<svg width="32" height="32" viewBox="0 0 32 32" fill="none" xmlns="http://www.w3.org/2000/svg">
<path fill-rule="evenodd" clip-rule="evenodd" d="M22.75 22L9.25 22C8.0095 22 7 20.9905 7 19.75L7 12.25C7 11.0095 8.0095 10 9.25 10L22.75 10C23.9905 10 25 11.0095 25 12.25L25 19.75C25 20.9905 23.9905 22 22.75 22ZM9.25 20.5L22.75 20.5C23.164 20.5 23.5 20.164 23.5 19.75L23.5 15.25L8.5 15.25V19.75C8.5 20.164 8.836 20.5 9.25 20.5ZM23.5 12.25C23.5 11.836 23.164 11.5 22.75 11.5L9.25 11.5C8.836 11.5 8.5 11.836 8.5 12.25V13L23.5 13V12.25Z" fill="#495057"/>
<path d="M17.5 18.25L21.25 18.25" stroke="white" stroke-width="1.22325"/>
</svg>
