<svg width="21" height="20" viewBox="0 0 21 20" fill="none" xmlns="http://www.w3.org/2000/svg">
<path fill-rule="evenodd" clip-rule="evenodd" d="M10.7843 17.6911C10.7011 17.6911 10.6174 17.6896 10.5331 17.6866L9.39112 19.4264C9.09676 19.8749 8.53976 20.0883 8.02236 19.9392C6.45175 19.4924 5.02252 18.672 3.85139 17.5538C3.45903 17.178 3.36611 16.588 3.61211 16.1077L4.56134 14.255C4.47523 14.118 4.39389 13.9786 4.31746 13.8368L2.21952 13.7256C1.68331 13.7 1.21879 13.3296 1.0852 12.8048C0.886791 12.0177 0.784302 11.2168 0.784302 10.4098C0.784302 9.60277 0.886791 8.80179 1.08564 8.01301C1.21879 7.48993 1.68331 7.11954 2.21549 7.09409L4.31746 6.98269C4.39389 6.84096 4.47523 6.70154 4.56134 6.56456L3.61207 4.71178C3.36611 4.23158 3.45903 3.64151 3.85231 3.26482C5.02252 2.14759 6.45175 1.32716 8.0197 0.881125C8.53976 0.731198 9.09676 0.944605 9.39107 1.39307L10.5331 3.1329C10.6174 3.12997 10.7011 3.12848 10.7843 3.12848C10.8675 3.12848 10.9512 3.12997 11.0355 3.1329L12.1775 1.39315C12.4719 0.944574 13.0286 0.731543 13.5472 0.880397C15.1171 1.32726 16.5463 2.14777 17.7172 3.2657C18.1091 3.64109 18.2011 4.22964 17.9565 4.71186L17.0072 6.56473C17.093 6.70143 17.1742 6.84078 17.2508 6.98268L19.3492 7.0939C19.8846 7.11961 20.3498 7.49003 20.4834 8.01476C20.6818 8.80179 20.7843 9.60277 20.7843 10.4098C20.7843 11.2168 20.6818 12.0177 20.483 12.8065C20.3498 13.3295 19.8846 13.6999 19.3531 13.7254L17.2508 13.8369C17.1742 13.9788 17.093 14.1181 17.0072 14.2548L17.9579 16.1105C18.2011 16.5899 18.1091 17.1784 17.7163 17.5547C16.5463 18.6718 15.1171 19.4923 13.5489 19.9387C13.0286 20.088 12.4719 19.875 12.1775 19.4265L11.0355 17.6866C10.9512 17.6896 10.8675 17.6911 10.7843 17.6911ZM8.21571 18.3609L9.47323 16.4452C9.63256 16.2024 9.91302 16.0677 10.2021 16.095C10.4028 16.114 10.5967 16.1237 10.7843 16.1237C10.9719 16.1237 11.1658 16.114 11.3665 16.095C11.6556 16.0677 11.9361 16.2024 12.0954 16.4452L13.3531 18.3611C14.503 17.9975 15.5565 17.3942 16.4455 16.5957L15.4014 14.5579C15.267 14.2955 15.2912 13.9798 15.4641 13.741C15.6893 13.4299 15.8819 13.1 16.0402 12.7532C16.1613 12.4876 16.4201 12.3114 16.7116 12.2959L19.0223 12.1735C19.151 11.5906 19.217 11.0014 19.217 10.4098C19.217 9.81772 19.1509 9.22818 19.0224 8.64608L16.7116 8.52362C16.4201 8.50817 16.1613 8.33195 16.0402 8.06637C15.8819 7.71957 15.6893 7.38963 15.4641 7.07855C15.2912 6.83972 15.267 6.52406 15.4014 6.26166L16.4455 4.22388C15.5562 3.42538 14.5034 2.82236 13.353 2.45843L12.0954 4.37438C11.9361 4.6171 11.6556 4.75184 11.3665 4.72453C11.1658 4.70556 10.9719 4.6958 10.7843 4.6958C10.5967 4.6958 10.4028 4.70556 10.2021 4.72453C9.91302 4.75184 9.63256 4.6171 9.47323 4.37438L8.21568 2.45858C7.06547 2.82217 6.01213 3.4254 5.12313 4.22384L6.16721 6.26166C6.30165 6.52406 6.27743 6.83972 6.10453 7.07855C5.87774 7.39181 5.6851 7.72146 5.52903 8.06511C5.40811 8.33136 5.149 8.50814 4.85698 8.52362L2.54629 8.64607C2.41758 9.22897 2.35162 9.81811 2.35162 10.4098C2.35162 11.0018 2.41767 11.5914 2.54625 12.1735L4.85698 12.2959C5.149 12.3114 5.40811 12.4882 5.52903 12.7544C5.6851 13.0981 5.87774 13.4277 6.10453 13.741C6.27743 13.9798 6.30165 14.2955 6.16721 14.5579L5.12315 16.5957C6.01214 17.3939 7.06462 17.9968 8.21571 18.3609ZM7.14041 10.4098C7.14041 8.39726 8.77181 6.76587 10.7843 6.76587C12.7968 6.76587 14.4282 8.39726 14.4282 10.4098C14.4282 12.4223 12.7968 14.0537 10.7843 14.0537C8.77181 14.0537 7.14041 12.4223 7.14041 10.4098ZM8.70774 10.4098C8.70774 11.5567 9.63742 12.4864 10.7843 12.4864C11.9312 12.4864 12.8609 11.5567 12.8609 10.4098C12.8609 9.26287 11.9312 8.33319 10.7843 8.33319C9.63742 8.33319 8.70774 9.26287 8.70774 10.4098Z" fill="#495057"/>
</svg>
