<svg width="32" height="32" viewBox="0 0 32 32" fill="none" xmlns="http://www.w3.org/2000/svg">
<path fill-rule="evenodd" clip-rule="evenodd" d="M14.575 10.525C12.2968 10.525 10.45 12.3718 10.45 14.65C10.45 16.0883 11.1854 17.3551 12.3043 18.0945C12.9552 18.5246 13.7347 18.775 14.575 18.775C14.9171 18.775 15.2485 18.7335 15.5649 18.6557C17.3653 18.2125 18.7 16.5862 18.7 14.65C18.7 14.2723 18.6494 13.9076 18.5551 13.5617C18.0777 11.811 16.4755 10.525 14.575 10.525ZM8.94995 14.65C8.94995 11.5434 11.4683 9.02502 14.575 9.02502C17.0481 9.02502 19.1468 10.6205 19.9012 12.8371L22.3354 14.0542C22.5312 14.1521 22.6745 14.3307 22.7276 14.5431L23.4776 17.5431C23.5324 17.7622 23.4855 17.9944 23.35 18.175L21.1 21.175C20.9583 21.3639 20.736 21.475 20.5 21.475H18.0539C17.4589 22.7589 16.1592 23.65 14.6499 23.65C12.5789 23.65 10.8999 21.9711 10.8999 19.9C10.8999 19.5904 10.9376 19.2889 11.0088 19.0002C9.75293 17.9695 8.94995 16.4037 8.94995 14.65ZM12.4007 19.8392C12.4002 19.8594 12.3999 19.8797 12.3999 19.9C12.3999 21.1427 13.4073 22.15 14.6499 22.15C15.3328 22.15 15.9453 21.8456 16.3582 21.3646C16.2785 21.3158 16.2076 21.2518 16.15 21.175L15.4268 20.2108C15.1487 20.2531 14.8642 20.275 14.575 20.275C13.8049 20.275 13.07 20.1199 12.4007 19.8392ZM16.9547 19.748L17.125 19.975H20.125L21.9358 17.5606L21.356 15.2416L20.1999 14.6635C20.1946 16.9145 18.8678 18.8535 16.9547 19.748ZM14.5 11.875C14.7723 11.875 15.0233 12.0227 15.1556 12.2608L17.0306 15.6358C17.1596 15.8681 17.1561 16.1513 17.0214 16.3804C16.8866 16.6094 16.6407 16.75 16.375 16.75H12.625C12.3592 16.75 12.1133 16.6094 11.9786 16.3804C11.8438 16.1513 11.8403 15.8681 11.9694 15.6358L13.8444 12.2608C13.9766 12.0227 14.2276 11.875 14.5 11.875ZM13.8996 15.25H15.1003L14.5 14.1694L13.8996 15.25Z" fill="white"/>
</svg>
