<svg width="21" height="20" viewBox="0 0 21 20" fill="none" xmlns="http://www.w3.org/2000/svg">
<path fill-rule="evenodd" clip-rule="evenodd" d="M16.6176 20L4.95096 20C3.57262 20 2.45096 18.8792 2.45096 17.5L2.45096 9.16667C2.45096 7.78833 3.57262 6.66667 4.95096 6.66667H5.78429L5.78429 5C5.78429 2.24333 8.02679 0 10.7843 0C13.5418 0 15.7843 2.24333 15.7843 5V6.66667H16.6176C17.996 6.66667 19.1176 7.78833 19.1176 9.16667V17.5C19.1176 18.8792 17.996 20 16.6176 20ZM10.7843 1.66667C8.94596 1.66667 7.45096 3.16167 7.45096 5V6.66667L14.1176 6.66667V5C14.1176 3.16167 12.6226 1.66667 10.7843 1.66667ZM17.451 9.16667C17.451 8.70667 17.0768 8.33333 16.6176 8.33333L4.95096 8.33333C4.49179 8.33333 4.11762 8.70667 4.11762 9.16667L4.11762 17.5C4.11762 17.9592 4.49179 18.3333 4.95096 18.3333L16.6176 18.3333C17.0768 18.3333 17.451 17.9592 17.451 17.5L17.451 9.16667ZM11.6176 13.1017L11.6176 15C11.6176 15.46 11.2443 15.8333 10.7843 15.8333C10.3243 15.8333 9.95096 15.46 9.95096 15V13.1017C9.45512 12.8125 9.11762 12.2808 9.11762 11.6667C9.11762 10.7475 9.86512 10 10.7843 10C11.7035 10 12.451 10.7475 12.451 11.6667C12.451 12.2808 12.1135 12.8125 11.6176 13.1017Z" fill="#495057"/>
</svg>
