<svg width="16" height="16" viewBox="0 0 16 16" fill="none" xmlns="http://www.w3.org/2000/svg">
<path d="M14.4527 7.10287L8.82773 7.10287L8.82773 1.43301C8.82773 0.930622 8.39504 0.5 7.89023 0.5C7.31331 0.5 6.88062 0.930622 6.88062 1.43301L6.88062 7.0311L1.1835 7.0311C0.678694 7.10287 0.246002 7.53349 0.246002 8.03588C0.246002 8.53828 0.678694 8.9689 1.1835 8.9689L6.8085 8.9689L6.8085 14.567C6.8085 15.0694 7.24119 15.5 7.746 15.5C8.25081 15.5 8.6835 15.0694 8.6835 14.567L8.6835 8.9689L14.3085 8.9689C14.8133 8.9689 15.246 8.53828 15.246 8.03588C15.246 7.53349 14.9575 7.10287 14.4527 7.10287Z" fill="currentColor"/>
</svg>
