<svg width="32" height="32" viewBox="0 0 32 32" fill="none" xmlns="http://www.w3.org/2000/svg">
<path fill-rule="evenodd" clip-rule="evenodd" d="M19.9856 19.7901L16.6901 14.5488V11.6923L22.5907 21.5269L19.9856 19.7901ZM12.7486 20.948H19.2253L21.3277 22.3495L10.2958 22.3495L12.7486 20.948ZM15.3052 14.5488L12.0249 19.7659L9.64489 21.1259L15.3052 11.6923L15.3052 14.5488ZM15.9977 16.0501L18.2074 19.563H13.7887L15.9977 16.0501ZM24.9015 22.6854L16.5918 8.83585C16.5697 8.79984 16.5406 8.77076 16.5129 8.74029C16.3861 8.59556 16.2054 8.5 15.9977 8.5C15.7899 8.5 15.6099 8.59556 15.4825 8.74029C15.4548 8.77076 15.4257 8.79915 15.4042 8.83585L7.0945 22.6854C7.06195 22.7401 7.03772 22.7983 7.0211 22.8578C7.01971 22.862 7.01971 22.8661 7.01902 22.8703C7.00032 22.943 6.99686 23.0178 7.0024 23.0926C7.00448 23.1133 7.00655 23.1327 7.01002 23.1535C7.02248 23.2324 7.04464 23.3107 7.0855 23.3827C7.08619 23.3834 7.08619 23.3834 7.08619 23.3841C7.08688 23.3848 7.08688 23.3848 7.08688 23.3855C7.09865 23.4056 7.11458 23.4201 7.12774 23.4388C7.15059 23.47 7.17136 23.5039 7.19837 23.5309C7.22468 23.5572 7.25515 23.5766 7.28493 23.5988C7.30501 23.6126 7.32163 23.6292 7.34171 23.641C7.37426 23.6597 7.40888 23.6708 7.44351 23.6839C7.46567 23.6922 7.48575 23.704 7.5086 23.7102C7.56054 23.7241 7.61386 23.7296 7.66718 23.7317C7.67479 23.7317 7.68103 23.7345 7.68795 23.7345L24.3074 23.7345C24.5574 23.7345 24.7873 23.6001 24.9098 23.3827C25.0331 23.166 25.0296 22.8994 24.9015 22.6854Z" fill="#495057"/>
</svg>
